<svg width="304" height="97" viewBox="0 0 304 97" fill="none" xmlns="http://www.w3.org/2000/svg">
<path d="M10.048 57.5C18.464 57.5 23.584 52.956 23.584 44.7C23.584 36.092 18.304 31.9 10.048 31.9H2.24C2.464 34.46 2.528 35.836 2.528 38.492V50.908C2.528 53.564 2.464 54.94 2.24 57.5H10.048ZM6.912 32.508H9.92C15.2 32.508 18.848 36.38 18.848 44.7C18.848 52.7 15.2 56.892 9.92 56.892H6.912V32.508ZM35.9463 58.14C41.4503 58.14 45.5143 55.004 45.5143 49.852C45.5143 44.7 41.4503 41.564 35.9463 41.564C30.4103 41.564 26.3783 44.7 26.3783 49.852C26.3783 55.004 30.4103 58.14 35.9463 58.14ZM35.9463 57.532C32.3623 57.532 30.5383 54.716 30.5383 49.852C30.5383 45.02 32.3623 42.172 35.9463 42.172C39.4983 42.172 41.3223 45.02 41.3223 49.852C41.3223 54.716 39.4983 57.532 35.9463 57.532ZM54.6818 65.82C60.8578 65.82 68.9858 63.612 68.9858 58.716C68.9858 56.444 67.1938 55.292 64.6978 55.292C60.4418 55.292 57.1138 58.3 52.0258 58.3C50.2658 58.3 49.5618 57.276 49.5618 56.22C49.5618 55.004 50.2018 54.172 52.0258 53.116C53.4338 53.884 55.2258 54.3 57.1458 54.3C61.7537 54.3 65.7538 51.932 65.7538 47.932C65.7538 45.724 64.5378 43.996 62.6818 42.908C64.4097 41.436 64.9538 41.756 66.5538 41.948C68.3458 42.396 69.2738 41.372 68.8898 39.644C65.5938 39.164 63.8978 40.764 62.2018 42.684C60.7618 41.98 59.0018 41.564 57.1458 41.564C52.5058 41.564 48.5378 43.932 48.5378 47.932C48.5378 49.948 49.5298 51.548 51.0658 52.636C48.4738 53.628 47.0658 54.94 47.0658 56.668C47.0658 57.98 47.8018 58.908 48.9218 59.42C47.7698 60.06 47.0658 60.956 47.0658 62.076C47.0658 64.86 50.9698 65.82 54.6818 65.82ZM57.1458 53.692C54.3298 53.692 52.6978 51.42 52.6978 47.932C52.6978 44.444 54.3298 42.172 57.1458 42.172C59.9618 42.172 61.5618 44.444 61.5618 47.932C61.5618 51.42 59.9618 53.692 57.1458 53.692ZM54.2658 64.7C51.0338 64.7 48.0898 63.868 48.0898 61.884C48.0898 60.988 48.5378 60.252 49.5938 59.676C50.1698 59.836 50.7778 59.9 51.3858 59.9C55.9298 59.9 59.5458 56.604 63.0658 56.604C64.8258 56.604 65.4978 57.596 65.4978 58.716C65.4978 62.396 59.4818 64.7 54.2658 64.7ZM78.9318 65.82C85.1078 65.82 93.2358 63.612 93.2358 58.716C93.2358 56.444 91.4438 55.292 88.9478 55.292C84.6918 55.292 81.3638 58.3 76.2758 58.3C74.5158 58.3 73.8118 57.276 73.8118 56.22C73.8118 55.004 74.4518 54.172 76.2758 53.116C77.6838 53.884 79.4758 54.3 81.3958 54.3C86.0037 54.3 90.0038 51.932 90.0038 47.932C90.0038 45.724 88.7878 43.996 86.9318 42.908C88.6597 41.436 89.2038 41.756 90.8038 41.948C92.5958 42.396 93.5238 41.372 93.1398 39.644C89.8438 39.164 88.1478 40.764 86.4518 42.684C85.0118 41.98 83.2518 41.564 81.3958 41.564C76.7558 41.564 72.7878 43.932 72.7878 47.932C72.7878 49.948 73.7798 51.548 75.3158 52.636C72.7238 53.628 71.3158 54.94 71.3158 56.668C71.3158 57.98 72.0518 58.908 73.1718 59.42C72.0198 60.06 71.3158 60.956 71.3158 62.076C71.3158 64.86 75.2198 65.82 78.9318 65.82ZM81.3958 53.692C78.5798 53.692 76.9478 51.42 76.9478 47.932C76.9478 44.444 78.5798 42.172 81.3958 42.172C84.2118 42.172 85.8118 44.444 85.8118 47.932C85.8118 51.42 84.2118 53.692 81.3958 53.692ZM78.5158 64.7C75.2838 64.7 72.3398 63.868 72.3398 61.884C72.3398 60.988 72.7878 60.252 73.8438 59.676C74.4198 59.836 75.0278 59.9 75.6358 59.9C80.1798 59.9 83.7958 56.604 87.3158 56.604C89.0758 56.604 89.7478 57.596 89.7478 58.716C89.7478 62.396 83.7318 64.7 78.5158 64.7ZM103.384 58.14C108.888 58.14 112.952 55.004 112.952 49.852C112.952 44.7 108.888 41.564 103.384 41.564C97.8478 41.564 93.8158 44.7 93.8158 49.852C93.8158 55.004 97.8478 58.14 103.384 58.14ZM103.384 57.532C99.7998 57.532 97.9758 54.716 97.9758 49.852C97.9758 45.02 99.7998 42.172 103.384 42.172C106.936 42.172 108.76 45.02 108.76 49.852C108.76 54.716 106.936 57.532 103.384 57.532Z" fill="#FEEFDD"/>
<rect x="136.55" y="10.5499" width="61.2477" height="86.4501" rx="11.7221" fill="#D9B68D"/>
<path d="M161.459 28.426C161.459 32.7959 157.917 36.3384 153.547 36.3384C149.177 36.3384 145.634 32.7959 145.634 28.426C145.634 24.0561 149.177 20.5136 153.547 20.5136C157.917 20.5136 161.459 24.0561 161.459 28.426Z" fill="white"/>
<circle cx="179.335" cy="28.426" r="7.91239" fill="white"/>
<ellipse cx="167.174" cy="42.0529" rx="13.9199" ry="11.5755" fill="#201E1F"/>
<ellipse cx="153.4" cy="28.426" rx="5.42145" ry="5.27492" fill="#201E1F"/>
<ellipse cx="179.335" cy="28.5725" rx="5.27492" ry="5.42145" fill="#201E1F"/>
<ellipse cx="167.174" cy="34.1405" rx="5.7145" ry="3.66314" fill="#FF4000"/>
<path d="M194.446 5.4614L201.534 21.39L178.257 11.9306L194.446 5.4614Z" fill="#FEEFDD"/>
<path d="M139.618 5.58314L155.576 12.6041L131.989 21.2592L139.618 5.58314Z" fill="#FEEFDD"/>
<path d="M226.085 57.5C225.861 54.94 225.797 53.564 225.797 50.908V45.66H228.101C234.053 45.66 239.269 44.444 239.269 38.78C239.269 33.116 234.053 31.9 228.101 31.9H221.125C221.349 34.46 221.413 35.836 221.413 38.492V50.908C221.413 53.564 221.349 54.94 221.125 57.5H226.085ZM225.797 32.508H228.069C231.557 32.508 234.821 33.788 234.821 38.78C234.821 43.772 231.557 45.052 228.069 45.052H225.797V32.508ZM247.401 36.188L244.713 33.788L242.025 36.188L244.713 38.588L247.401 36.188ZM246.921 57.5C246.633 54.908 246.633 53.34 246.633 51.228V48.508C246.633 46.396 246.633 44.796 246.921 42.204H242.505C242.825 44.796 242.825 46.396 242.825 48.508V51.228C242.825 53.34 242.825 54.908 242.505 57.5H246.921ZM258.804 58.14C263.572 58.14 265.652 55.004 266.708 51.484H266.196C265.236 54.748 263.252 56.988 260.148 56.988C256.116 56.988 254.548 53.468 254.548 49.436C254.548 44.764 255.924 42.172 259.156 42.172C261.844 42.172 262.452 44.06 262.676 45.34C262.996 47.164 264.98 47.548 265.94 46.14C265.236 43.804 262.964 41.564 258.964 41.564C254.1 41.564 250.388 44.54 250.388 49.852C250.388 55.196 254.1 58.14 258.804 58.14ZM283.948 57.5C283.948 56.124 283.564 55.324 282.412 55.324C280.78 55.324 280.012 56.892 276.332 56.892H272.204L282.924 43.388V42.204H268.492C268.492 43.58 268.876 44.412 270.028 44.412C271.66 44.412 272.62 42.812 276.3 42.812H278.796L268.076 56.348V57.5H283.948ZM301.979 57.5C301.979 56.124 301.595 55.324 300.443 55.324C298.811 55.324 298.043 56.892 294.363 56.892H290.235L300.955 43.388V42.204H286.523C286.523 43.58 286.907 44.412 288.059 44.412C289.691 44.412 290.651 42.812 294.331 42.812H296.827L286.107 56.348V57.5H301.979Z" fill="#FEEFDD"/>
</svg>
